<svg width="166" height="80" viewBox="0 0 166 80" fill="none" xmlns="http://www.w3.org/2000/svg">
<g clip-path="url(#clip0_670_47191)">
<path d="M7.8085 58.9499C7.8085 58.9499 -3.49045 50.9938 4.84152 36.08C7.32849 31.6265 11.3031 28.1487 16.1239 26.4937C20.1544 25.11 24.8655 24.8759 27.5925 29.4764C27.5925 29.4764 31.7989 23.4716 42.235 25.6175C42.235 25.6175 46.1289 14.5067 55.1644 24.3312C55.1644 24.3312 61.5514 15.5941 67.0033 20.2754C67.0033 20.2754 75.1036 10.1402 86.3177 18.2496C86.3177 18.2496 95.8187 9.62032 102.206 15.1053C102.206 15.1053 106.255 9.4049 111.552 13.2804C111.552 13.2804 115.135 10.1319 117.471 11.9299C117.471 11.9299 123.546 6.39727 126.662 9.3614C126.662 9.3614 128.842 3.87434 135.54 8.48935C135.54 8.48935 145.291 -4.03206 157.97 5.15238C165.121 10.3329 164.924 16.6754 163.199 21.4478C161.887 25.0789 159.468 28.2046 156.373 30.508C154.159 32.1547 151.366 34.3131 151.273 34.7812C151.117 35.56 147.066 41.0181 143.64 37.4326C143.64 37.4326 137.098 45.2292 133.514 38.6795C133.514 38.6795 128.375 40.0839 126.037 37.2751C126.037 37.2751 121.052 43.512 116.536 39.9265C116.536 39.9265 114.043 43.5141 114.355 46.008C114.667 48.504 113.887 55.5197 106.722 53.8047C106.722 53.8047 103.139 62.5375 103.296 65.1889C103.451 67.8402 100.96 73.4536 96.4414 72.6748C93.9545 72.246 93.5924 70.6801 93.7682 69.3606C93.8572 68.704 93.1662 68.2255 92.5806 68.5321C90.3006 69.7314 86.2598 71.0757 82.5624 68.3084C81.9872 67.8775 81.1699 68.0101 80.7851 68.617C79.4196 70.7629 76.1774 74.595 72.0745 70.9059C71.5717 70.4543 70.8 70.4895 70.3469 70.9908C68.8365 72.6707 65.7847 75.9496 64.9736 75.9496H59.3666C59.3666 75.9496 55.3175 81.0949 50.0208 75.9496C50.0208 75.9496 48.9304 74.3899 49.5532 69.2446C49.5532 69.2446 47.5276 65.191 49.7083 58.3285L47.6828 56.6134C47.6828 56.6134 44.4116 60.201 40.9853 56.7688C40.9853 56.7688 32.1071 68.153 26.8104 57.2369L24.4745 56.1453C24.4745 56.1453 23.8517 68.153 15.5963 67.2168C7.3409 66.2805 7.8085 58.952 7.8085 58.952V58.9499Z" fill="#5E2708"/>
<path d="M54.7878 80.0219C52.7064 80.0219 50.687 79.0836 48.7793 77.2297L48.6573 77.1117L48.56 76.9729C48.2228 76.4903 47.1903 74.5515 47.7304 69.4932C47.2317 68.1447 46.2179 64.3997 47.6724 58.9396L47.6621 58.9292C46.8345 59.4698 45.6717 60.0063 44.2875 60.0374C43.4826 60.056 42.3943 59.8986 41.2233 59.2068C39.4274 61.0834 35.8604 64.1283 31.9437 63.7161C29.5002 63.4572 27.4498 61.9389 25.8401 59.2006C25.3228 61.6572 24.189 65.0667 21.7248 67.1567C19.9661 68.6481 17.8391 69.2633 15.3977 68.9898C8.28231 68.1841 6.20914 63.0802 6.02707 59.8033C4.95531 58.8712 2.9794 56.8765 1.5828 53.8585C-0.219318 49.9643 -1.38625 43.5679 3.28561 35.2058C6.04776 30.2615 10.401 26.5662 15.5467 24.8014C20.7172 23.0262 24.9773 23.7242 27.7829 26.7443C29.916 24.965 34.2072 22.5767 41.184 23.6145C42.0674 21.9242 43.9151 19.248 46.9565 18.6204C49.5263 18.0901 52.2408 19.1217 55.0485 21.6902C56.623 19.9916 59.4162 17.5329 62.6584 17.158C64.0963 16.9923 65.4847 17.2616 66.753 17.9451C67.7875 16.9612 69.4903 15.5817 71.729 14.5874C75.0705 13.1043 80.2182 12.224 86.2101 16.0188C88.904 13.9225 96.0173 9.23088 101.949 12.7294C102.969 11.7621 104.595 10.5711 106.662 10.2355C108.297 9.97037 109.905 10.2645 111.458 11.1096C113.021 10.0657 115.228 9.16875 117.221 9.8088C119.023 8.39198 122.879 5.84006 126.101 6.96067C126.722 6.25019 127.636 5.50656 128.919 5.11715C130.802 4.54545 132.914 4.9038 135.211 6.18183C136.38 4.98251 138.449 3.13693 141.211 1.77397C145.322 -0.251827 151.746 -1.56093 159.017 3.70449C167.202 9.63274 166.722 16.9571 164.879 22.0589C163.472 25.953 160.898 29.3708 157.438 31.9455C154.047 34.4684 153.102 35.357 152.864 35.6077C152.26 36.9706 150.199 39.477 147.664 40.2144C146.324 40.6038 145.008 40.4609 143.83 39.8208C142.314 41.2563 139.568 43.3504 136.68 43.0625C135.542 42.9507 134.003 42.4225 132.674 40.666C131.085 40.8959 128.36 41.0202 126.2 39.7297C124.038 41.7721 120.577 43.7709 117.163 42.3624C116.544 43.5493 116.023 44.9309 116.13 45.7905C116.364 47.6568 116.103 51.8099 113.457 54.1837C112.404 55.1262 110.62 56.0894 107.848 55.8118C106.513 59.2358 105.001 63.7265 105.082 65.0874C105.208 67.2478 104.082 70.6697 101.746 72.7618C100.124 74.2138 98.1877 74.7938 96.1414 74.4396C93.8324 74.0419 92.3572 72.6872 92.022 70.7712C88.3888 72.2584 84.8797 72.0202 81.9686 70.0773C80.7437 71.8566 78.8382 73.8327 76.2891 74.1828C74.576 74.4189 72.9042 73.8865 71.311 72.6023C66.6454 77.7414 65.7619 77.7413 64.9819 77.7413H60.1466C59.2817 78.572 57.5872 79.8583 55.2575 80.0137C55.1023 80.024 54.9471 80.0302 54.7919 80.0302L54.7878 80.0219ZM51.4877 74.8725C52.696 75.9786 53.8733 76.5048 54.9885 76.4405C56.7265 76.3391 57.9617 74.8456 57.9741 74.829L58.51 74.1475L59.3686 74.1579H64.6364C65.1433 73.8037 66.5109 72.5837 69.0206 69.7915C70.1276 68.559 72.0331 68.4616 73.2683 69.5719C74.1828 70.3942 75.0084 70.7381 75.7988 70.6324C76.9036 70.4812 78.1719 69.3958 79.2789 67.6538C79.7237 66.9537 80.4479 66.4648 81.2651 66.3157C82.0927 66.1624 82.9555 66.3675 83.6321 66.875C86.4501 68.9836 89.6012 68.0784 91.7509 66.9495C92.6158 66.4938 93.6524 66.5601 94.4531 67.1215C95.2538 67.6807 95.6697 68.6315 95.5393 69.5988C95.4483 70.2699 95.4855 70.6946 96.7456 70.9121C97.7035 71.0778 98.5601 70.8085 99.3629 70.0918C100.851 68.7599 101.579 66.4089 101.513 65.2945C101.341 62.3842 104.446 54.6477 105.071 53.1252L105.653 51.7105L107.14 52.0668C108.903 52.4893 110.19 52.3091 111.074 51.5158C112.549 50.1942 112.729 47.3834 112.586 46.2297C112.201 43.1433 114.777 39.3299 115.073 38.9053L116.159 37.3414L117.649 38.5242C120.713 40.956 124.489 36.3513 124.648 36.1545L126.016 34.4601L127.413 36.1297C128.72 37.6998 132.002 37.2378 133.049 36.952L134.408 36.5812L135.085 37.8178C135.943 39.3879 136.761 39.4708 137.029 39.4977C138.933 39.6924 141.519 37.1736 142.277 36.2767L143.559 34.7605L144.933 36.1939C145.581 36.8712 146.077 36.8899 146.439 36.8298C147.743 36.6144 149.218 34.9013 149.557 34.2716C149.715 33.5964 150.168 32.8983 155.311 29.0704C158.206 26.9162 160.356 24.0681 161.523 20.8368C163.596 15.0991 162.05 10.308 156.927 6.59818C152.247 3.20735 147.49 2.66465 142.794 4.97837C139.181 6.75974 136.974 9.55816 136.953 9.58716L135.918 10.9149L134.532 9.96C132.695 8.6944 131.127 8.19935 129.993 8.52662C128.836 8.86011 128.321 10.0304 128.317 10.0429L127.34 12.4974L125.435 10.656C124.013 9.30339 120.198 11.874 118.675 13.2535L117.57 14.254L116.387 13.3467C115.57 12.717 113.602 13.8708 112.729 14.6268L111.653 15.5589L110.5 14.7221C109.387 13.906 108.326 13.5911 107.256 13.7589C105.177 14.0862 103.675 16.1265 103.658 16.1451L102.52 17.7131L101.045 16.46C95.9138 12.0542 87.6025 19.4966 87.5198 19.5712L86.448 20.5447L85.2749 19.6954C81.1761 16.7313 77.1064 16.112 73.1814 17.8519C70.2351 19.159 68.4185 21.367 68.3999 21.3877L67.2454 22.8315L65.8426 21.628C64.9736 20.8823 64.0943 20.5861 63.0784 20.7042C60.368 21.0128 57.4879 24.1882 56.6065 25.3855L55.3216 27.1316L53.8526 25.5388C52.1974 23.7387 49.7828 21.6839 47.6786 22.1189C45.6324 22.5415 44.2461 25.2798 43.9213 26.2057L43.404 27.6785L41.8771 27.3636C32.823 25.5035 29.196 30.3071 29.047 30.5121L27.4601 32.7782L26.0594 30.3837C25.3994 29.2714 23.3924 25.8847 16.7053 28.1798C12.3935 29.6608 8.73542 32.7741 6.40363 36.9479C-1.00555 50.2087 8.43955 57.1955 8.84508 57.4855L9.64993 58.0634L9.59407 59.0452C9.5651 59.6231 9.49683 64.7187 15.8011 65.4312C17.2433 65.5949 18.4267 65.2655 19.4178 64.4245C21.8572 62.3532 22.6124 57.6719 22.6951 56.0438L22.8317 53.3945L28.1429 55.876L28.4201 56.4477C29.5374 58.7511 30.8471 59.998 32.3161 60.1554C35.1486 60.4599 38.5211 57.0132 39.5846 55.6585L40.8281 54.0739L42.2536 55.4969C42.9137 56.1598 43.5551 56.4829 44.2068 56.4581C45.3572 56.4311 46.3607 55.4099 46.3689 55.3996L47.5276 54.1278L51.7753 57.7257L51.4132 58.8629C49.5056 64.8637 51.136 68.4036 51.1525 68.4368L51.3925 68.9173L51.3284 69.4517C50.9146 72.8612 51.3284 74.4168 51.4877 74.8684V74.8725ZM153.023 35.1271C153.009 35.2017 152.984 35.2845 152.953 35.3757C152.98 35.3053 153.004 35.2224 153.023 35.1271Z" fill="#5E2708"/>
<path d="M7.8085 58.9499C7.8085 58.9499 -3.49045 50.9938 4.84152 36.08C7.32849 31.6265 11.3031 28.1487 16.1239 26.4937C20.1544 25.11 24.8656 24.8759 27.5925 29.4764C27.5925 29.4764 31.7989 23.4715 42.235 25.6175C42.235 25.6175 46.1289 14.5067 55.1644 24.3312C55.1644 24.3312 61.5514 15.5941 67.0033 20.2754C67.0033 20.2754 75.1036 10.1402 86.3177 18.2496C86.3177 18.2496 95.8187 9.62032 102.206 15.1053C102.206 15.1053 106.255 9.40489 111.552 13.2804C111.552 13.2804 115.135 10.1319 117.471 11.9299C117.471 11.9299 123.546 6.39727 126.662 9.3614C126.662 9.3614 128.842 3.87434 135.54 8.48935C135.54 8.48935 145.053 -3.69236 157.97 5.15238C166.188 10.7803 165.067 17.9348 162.776 22.8398C161.39 25.8122 159.253 28.3703 156.621 30.3236C154.372 31.9911 151.368 34.2965 151.271 34.7812C151.115 35.56 147.064 41.0181 143.638 37.4326C143.638 37.4326 137.096 45.2292 133.512 38.6795C133.512 38.6795 128.373 40.0839 126.035 37.2751C126.035 37.2751 121.05 43.512 116.534 39.9265C116.534 39.9265 114.041 43.5141 114.353 46.008C114.665 48.504 113.885 55.5197 106.72 53.8046C106.72 53.8046 103.137 62.5375 103.294 65.1889C103.451 67.8402 100.958 73.4536 96.4394 72.6748C93.9524 72.246 93.5903 70.6801 93.7662 69.3606C93.8552 68.704 93.1641 68.2255 92.5786 68.5321C90.2985 69.7314 86.2577 71.0757 82.5603 68.3084C81.9851 67.8775 81.1679 68.0101 80.783 68.617C79.4175 70.7629 76.1753 74.595 72.0724 70.9059C71.5697 70.4543 70.7979 70.4895 70.3448 70.9908C68.8344 72.6707 65.7826 75.9496 64.9715 75.9496H59.3645C59.3645 75.9496 55.3154 81.0949 50.0187 75.9496C50.0187 75.9496 48.9283 74.3899 49.5511 69.2446C49.5511 69.2446 47.5255 65.191 49.7063 58.3285L47.6807 56.6134C47.6807 56.6134 44.4096 60.201 40.9833 56.7688C40.9833 56.7688 32.1051 68.153 26.8084 57.2369L24.4724 56.1453C24.4724 56.1453 23.8497 68.153 15.5942 67.2168C7.33883 66.2805 7.80643 58.952 7.80643 58.952L7.8085 58.9499Z" fill="#43E8F3"/>
<path d="M54.794 78.922C53.0043 78.922 51.2394 78.0894 49.5428 76.4406L49.458 76.3411C49.3318 76.1609 48.2621 74.4562 48.8497 69.3482C48.469 68.443 47.1241 64.582 48.92 58.5564L47.7055 57.5269C47.0559 58.0675 45.8103 58.9023 44.2606 58.9375C43.1247 58.9603 42.053 58.5667 41.0557 57.7547C39.8246 59.1591 36.3818 62.6556 32.6658 62.6556C32.463 62.6556 32.2623 62.6452 32.0596 62.6245C29.7402 62.378 27.8056 60.7416 26.3035 57.7568L25.0683 57.1789C24.818 59.2171 23.9407 63.8363 21.013 66.3198C19.4944 67.6082 17.6467 68.1385 15.5198 67.8982C7.84161 67.0283 7.16504 60.897 7.12159 59.2896C6.32708 58.6558 4.09668 56.6818 2.57594 53.3966C0.881409 49.7365 -0.20483 43.7026 4.24151 35.7444C6.87124 31.0383 11.0114 27.5211 15.9005 25.8433C21.1392 24.0432 25.1842 24.9091 27.6649 28.3351C29.1981 26.7484 33.5762 23.3307 41.8088 24.8324C42.384 23.5233 44.0806 20.3334 47.1759 19.6954C49.6173 19.1921 52.2843 20.3976 55.1147 23.281C56.2837 21.8766 59.319 18.6473 62.7825 18.2476C64.2743 18.0756 65.6626 18.4423 66.9185 19.3371C68.8096 17.3589 76.3946 10.5959 86.2722 17.3755C88.1881 15.7723 96.098 9.75287 102.1 14.1421C102.866 13.2783 104.55 11.6875 106.838 11.3168C108.425 11.0578 109.998 11.4307 111.52 12.4208C112.547 11.644 115.224 9.90822 117.409 11.0723C118.787 9.9248 123.337 6.48633 126.44 8.33192C126.906 7.6173 127.791 6.60441 129.24 6.16528C131.017 5.62465 133.09 6.09899 135.412 7.57588C136.272 6.61062 138.441 4.42118 141.612 2.88215C145.419 1.03242 151.415 -0.175183 158.359 4.58068C166.937 10.453 165.837 17.9078 163.401 23.1277C161.99 26.1498 159.789 28.8281 157.033 30.8725C152.793 34.0148 152.051 34.8351 151.922 35.0111C151.637 35.9101 149.68 38.4786 147.358 39.1539C146.036 39.5391 144.78 39.2781 143.686 38.404C142.564 39.5785 139.672 42.2547 136.787 41.9647C135.341 41.8218 134.129 40.9808 133.179 39.4625C131.851 39.7318 128.311 40.2144 126.074 38.288C124.088 40.4526 120.246 43.075 116.726 40.9C115.975 42.1366 114.845 44.3861 115.038 45.9231C115.247 47.5905 115.03 51.2921 112.723 53.3593C111.326 54.6125 109.451 55.0267 107.145 54.598C106.056 57.3198 103.871 63.2397 103.983 65.1495C104.097 67.078 103.017 70.1457 101.012 71.9374C99.6484 73.1574 98.0284 73.6442 96.3276 73.3521C93.9772 72.9462 92.7979 71.4589 93.0917 69.2695C93.0937 69.2508 93.102 69.1949 93.04 69.1493C92.9965 69.1183 92.951 69.1162 92.9055 69.141C90.6316 70.3383 86.2101 71.8939 82.1569 68.8593C82.0265 68.762 81.8714 68.7247 81.7162 68.7537C81.5713 68.7806 81.4493 68.8635 81.3706 68.9857C80.2948 70.678 78.5133 72.7618 76.1402 73.0891C74.6091 73.3004 73.0883 72.7369 71.6214 71.4175C71.4 71.2186 71.0607 71.2331 70.8641 71.4506C66.2026 76.6353 65.3771 76.6353 64.9798 76.6353H59.6831C59.1079 77.2546 57.4879 78.7563 55.183 78.9096C55.0547 78.9179 54.9264 78.922 54.7982 78.922H54.794ZM50.5691 75.5188C52.0691 76.9542 53.5836 77.6357 55.0754 77.5363C57.312 77.3934 58.8141 75.5374 58.8307 75.5188L59.0376 75.2599H59.3686H64.9322C65.3005 75.1294 66.7178 74.0005 69.8379 70.5289C70.5393 69.748 71.7497 69.6858 72.5338 70.3921C73.6863 71.4278 74.8367 71.8773 75.9477 71.724C77.8988 71.4568 79.4527 69.429 80.2058 68.2462C80.4913 67.7967 80.9382 67.4943 81.4617 67.399C81.9893 67.3017 82.5396 67.4322 82.9721 67.7574C86.2494 70.2099 89.8309 69.2011 92.2599 67.9231C92.7606 67.66 93.3586 67.6973 93.822 68.0225C94.2834 68.3456 94.5234 68.8925 94.449 69.4518C94.2545 70.9059 94.9228 71.7137 96.5573 71.9954C97.8504 72.2191 99.0401 71.8545 100.093 70.91C101.765 69.4145 102.7 66.7963 102.609 65.2282C102.45 62.5002 105.713 54.4509 106.087 53.5416L106.311 52.9968L106.882 53.1335C108.99 53.6389 110.647 53.3697 111.804 52.3319C113.552 50.7659 113.879 47.7418 113.672 46.0909C113.331 43.365 115.863 39.6862 115.971 39.5309L116.389 38.9302L116.962 39.3859C120.887 42.5033 125.315 37.0763 125.501 36.8443L126.026 36.1897L126.564 36.836C128.588 39.2657 133.287 38.0291 133.334 38.0167L133.856 37.8758L134.116 38.3502C134.882 39.7504 135.798 40.4858 136.918 40.5976C139.802 40.8835 143.079 37.0307 143.112 36.9914L143.605 36.4052L144.135 36.9582C144.944 37.8054 145.81 38.1078 146.789 37.8841C148.765 37.4326 150.462 35.0588 150.604 34.6238C150.669 34.2944 150.766 33.8097 156.214 29.7726C158.787 27.8649 160.842 25.3668 162.156 22.5519C164.365 17.8146 165.367 11.0496 157.583 5.722C152.46 2.21518 147.302 1.67041 142.256 4.10426C138.439 5.94571 136.105 8.88705 136.082 8.91605L135.683 9.42353L135.151 9.05897C132.983 7.56344 131.129 7.03524 129.639 7.4868C127.961 7.99635 127.307 9.60167 127.299 9.61824L126.924 10.5628L126.188 9.86266C123.608 7.40809 117.988 12.3897 117.932 12.4415L117.508 12.8289L117.053 12.4788C115.193 11.0475 112.036 13.7734 112.005 13.8024L111.591 14.1649L111.146 13.8397C109.797 12.8537 108.425 12.4622 107.068 12.6818C104.523 13.0898 102.783 15.4844 102.764 15.5092L102.328 16.1203L101.759 15.6335C95.9076 10.6104 86.8701 18.6825 86.7791 18.7654L86.3673 19.1382L85.9163 18.813C81.4782 15.6045 77.0422 14.9458 72.7325 16.8556C69.4965 18.2911 67.5578 20.6856 67.5392 20.7104L67.0944 21.2655L66.5544 20.8016C65.4516 19.8549 64.2702 19.4676 62.946 19.6209C59.1948 20.0538 55.752 24.6957 55.7189 24.7434L55.2244 25.4166L54.6595 24.8014C51.976 21.8807 49.5532 20.6193 47.4614 21.048C44.391 21.6777 42.8992 25.808 42.8847 25.8495L42.6861 26.415L42.1005 26.2948C32.2706 24.2732 28.3208 29.6484 28.1574 29.8783L27.5449 30.74L27.0049 29.8327C24.9338 26.3362 21.3482 25.4331 16.3494 27.1503C11.781 28.7183 7.90989 32.0118 5.44361 36.4217C2.11455 42.379 1.56212 47.8785 3.8008 52.7669C5.47672 56.4291 8.18093 58.3741 8.20783 58.3927L8.52025 58.6144L8.49749 58.9976C8.48094 59.271 8.19128 65.6881 15.677 66.5373C17.4109 66.7341 18.9068 66.3116 20.1254 65.2779C23.4193 62.4857 23.7897 56.1743 23.7938 56.1121L23.8476 55.0951L27.3277 56.7211L27.4332 56.9407C28.7284 59.6107 30.334 61.0648 32.2065 61.2616C36.239 61.6883 40.4081 56.4021 40.4495 56.3483L40.9274 55.7352L41.4757 56.2841C42.3447 57.154 43.2737 57.5787 44.2234 57.5662C45.8848 57.5331 47.1697 56.1619 47.1841 56.1474L47.631 55.6647L50.5091 58.1007L50.3704 58.5377C48.3138 65.0107 50.1573 68.9008 50.1759 68.9401L50.2649 69.1224L50.2422 69.3275C49.727 73.5779 50.4284 75.2329 50.5732 75.5229L50.5691 75.5188Z" fill="#43E8F3"/>
<path d="M7.8085 58.9499C7.8085 58.9499 -3.49045 50.9938 4.84152 36.08C7.32849 31.6265 11.3031 28.1487 16.1239 26.4937C20.1544 25.11 24.8655 24.8759 27.5925 29.4764C27.5925 29.4764 31.7989 23.4715 42.235 25.6175C42.235 25.6175 46.1289 14.5067 55.1644 24.3312C55.1644 24.3312 61.5514 15.5941 67.0033 20.2754C67.0033 20.2754 75.1036 10.1402 86.3177 18.2496C86.3177 18.2496 95.8187 9.62031 102.206 15.1053C102.206 15.1053 106.255 9.40489 111.552 13.2804C111.552 13.2804 115.135 10.1319 117.471 11.9299C117.471 11.9299 123.546 6.39727 126.662 9.36139C126.662 9.36139 128.842 3.87434 135.54 8.48934C135.54 8.48934 145.01 -3.62815 157.97 5.15237C165.996 10.5897 164.918 17.767 162.692 22.7321C161.31 25.8143 159.123 28.4635 156.414 30.479C154.192 32.1298 151.366 34.3131 151.271 34.7833C151.115 35.5621 147.064 41.0202 143.638 37.4346C143.638 37.4346 137.096 45.2313 133.512 38.6816C133.512 38.6816 128.373 40.086 126.035 37.2772C126.035 37.2772 121.05 43.5141 116.534 39.9286C116.534 39.9286 114.041 43.5162 114.353 46.0101C114.665 48.5061 113.885 55.5218 106.72 53.8067C106.72 53.8067 103.137 62.5396 103.294 65.1909C103.451 67.8423 100.958 73.4557 96.4394 72.6769C93.9524 72.2481 93.5903 70.6821 93.7662 69.3627C93.8551 68.7061 93.1641 68.2276 92.5786 68.5341C90.2985 69.7335 86.2577 71.0778 82.5603 68.3104C81.9851 67.8796 81.1679 68.0121 80.783 68.6191C79.4175 70.765 76.1753 74.597 72.0724 70.9079C71.5697 70.4564 70.7979 70.4916 70.3448 70.9928C68.8344 72.6727 65.7826 75.9517 64.9715 75.9517H59.3645C59.3645 75.9517 55.3154 81.097 50.0187 75.9517C50.0187 75.9517 48.9283 74.392 49.5511 69.2467C49.5511 69.2467 47.5255 65.193 49.7063 58.3306L47.6807 56.6155C47.6807 56.6155 44.4096 60.2031 40.9833 56.7708C40.9833 56.7708 32.1051 68.1551 26.8084 57.239L24.4724 56.1474C24.4724 56.1474 23.8497 68.1551 15.5942 67.2188C7.33883 66.2826 7.80643 58.9541 7.80643 58.9541L7.8085 58.9499Z" fill="#FE760A"/>
<path d="M54.794 78.922C53.0043 78.922 51.2394 78.0893 49.5428 76.4405L49.458 76.3411C49.3318 76.1609 48.2621 74.4562 48.8497 69.3482C48.469 68.443 47.1241 64.582 48.92 58.5563L47.7055 57.5269C47.0559 58.0675 45.8103 58.9023 44.2606 58.9375C43.1247 58.9603 42.053 58.5667 41.0557 57.7547C39.8246 59.1591 36.3818 62.6556 32.6658 62.6556C32.463 62.6556 32.2623 62.6452 32.0596 62.6245C29.7402 62.378 27.8056 60.7416 26.3035 57.7568L25.0683 57.1789C24.818 59.2171 23.9407 63.8363 21.013 66.3198C19.4944 67.6082 17.6467 68.1385 15.5198 67.8982C7.84161 67.0282 7.16504 60.897 7.12159 59.2896C6.32708 58.6558 4.09668 56.6818 2.57594 53.3966C0.881409 49.7365 -0.20483 43.7005 4.24151 35.7444C6.87124 31.0382 11.0114 27.5211 15.9005 25.8432C21.1392 24.0453 25.1842 24.9091 27.6649 28.3351C29.1981 26.7484 33.5762 23.3307 41.8088 24.8324C42.384 23.5233 44.0806 20.3334 47.1759 19.6954C49.6173 19.19 52.2843 20.3976 55.1147 23.281C56.2837 21.8766 59.319 18.6473 62.7825 18.2475C64.2743 18.0756 65.6626 18.4422 66.9185 19.3371C68.8096 17.3589 76.3946 10.5959 86.2722 17.3755C88.1881 15.7723 96.098 9.75285 102.1 14.1421C102.866 13.2783 104.55 11.6875 106.838 11.3167C108.423 11.0599 109.998 11.4307 111.52 12.4208C112.547 11.644 115.224 9.9082 117.409 11.0723C118.787 9.92478 123.337 6.48631 126.44 8.3319C126.906 7.61728 127.791 6.60439 129.24 6.16526C131.017 5.62463 133.09 6.09897 135.412 7.57586C136.27 6.61267 138.432 4.43773 141.596 2.90491C145.397 1.06347 151.389 -0.142065 158.355 4.57858C166.741 10.2583 165.683 17.7359 163.319 23.0075C161.916 26.1353 159.671 28.9068 156.824 31.0237C152.764 34.0417 152.044 34.8371 151.92 35.009C151.635 35.908 149.677 38.4765 147.356 39.1518C146.034 39.5371 144.778 39.276 143.684 38.4019C142.562 39.5764 139.668 42.2485 136.785 41.9626C135.339 41.8197 134.127 40.9787 133.177 39.4604C131.849 39.7297 128.309 40.2123 126.072 38.2859C124.611 39.8767 122.149 41.7141 119.552 41.7141C118.615 41.7141 117.659 41.4738 116.726 40.8979C115.975 42.1345 114.845 44.3841 115.038 45.921C115.247 47.5885 115.03 51.29 112.723 53.3572C111.326 54.6104 109.451 55.0247 107.145 54.5959C106.056 57.3177 103.871 63.2376 103.983 65.1474C104.097 67.0759 103.017 70.1436 101.012 71.9353C99.6484 73.1553 98.0304 73.6442 96.3276 73.35C93.9772 72.9441 92.7979 71.4568 93.0917 69.2674C93.0937 69.2487 93.102 69.1928 93.04 69.1472C92.9965 69.1162 92.951 69.1141 92.9055 69.139C90.6316 70.3362 86.2101 71.8918 82.1569 68.8573C82.0265 68.7599 81.8714 68.7226 81.7162 68.7516C81.5713 68.7785 81.4493 68.8614 81.3706 68.9836C80.2948 70.6759 78.5133 72.7597 76.1402 73.087C74.6091 73.2983 73.0883 72.7348 71.6214 71.4154C71.4 71.2165 71.0607 71.231 70.8641 71.4485C66.2026 76.6332 65.3771 76.6332 64.9798 76.6332H59.6831C59.1079 77.2525 57.4879 78.7542 55.183 78.9075C55.0547 78.9158 54.9264 78.92 54.7982 78.92L54.794 78.922ZM50.5691 75.5188C52.0691 76.9542 53.5836 77.6357 55.0754 77.5363C57.312 77.3933 58.8141 75.5374 58.8307 75.5188L59.0376 75.2598H59.3686H64.9322C65.3005 75.1293 66.7178 74.0005 69.8379 70.5288C70.5393 69.7479 71.7497 69.6858 72.5338 70.3921C73.6884 71.4278 74.8367 71.8773 75.9477 71.724C77.8988 71.4568 79.4527 69.4289 80.2058 68.2462C80.4913 67.7967 80.9382 67.4943 81.4617 67.399C81.9893 67.3037 82.5396 67.4321 82.9721 67.7574C86.2494 70.2099 89.8309 69.2011 92.2599 67.9231C92.7606 67.66 93.3586 67.6973 93.822 68.0225C94.2834 68.3456 94.5234 68.8925 94.449 69.4517C94.2545 70.9058 94.9228 71.7137 96.5573 71.9954C97.8504 72.2191 99.0401 71.8545 100.093 70.91C101.765 69.4144 102.7 66.7962 102.609 65.2282C102.45 62.5002 105.713 54.4509 106.087 53.5416L106.311 52.9968L106.882 53.1335C108.99 53.6389 110.647 53.3696 111.804 52.3319C113.552 50.7659 113.879 47.7417 113.672 46.0909C113.331 43.3649 115.863 39.6862 115.971 39.5308L116.389 38.9301L116.962 39.3858C120.887 42.5032 125.315 37.0763 125.501 36.8443L126.026 36.1897L126.564 36.836C128.588 39.2657 133.287 38.0291 133.334 38.0167L133.856 37.8758L134.116 38.3501C134.882 39.7504 135.798 40.4857 136.918 40.5976C139.796 40.8814 143.079 37.0286 143.112 36.9913L143.605 36.4051L144.135 36.9582C144.944 37.8054 145.81 38.1078 146.789 37.8841C148.765 37.4325 150.462 35.0587 150.604 34.6238C150.669 34.3006 150.764 33.8242 156.005 29.9259C158.663 27.9498 160.759 25.3648 162.065 22.4503C164.212 17.6593 165.179 10.8673 157.583 5.72198C152.425 2.22758 147.246 1.69938 142.192 4.14773C138.391 5.98918 136.101 8.88495 136.078 8.91395L135.681 9.42351L135.149 9.05688C132.98 7.56135 131.125 7.03316 129.637 7.48472C127.959 7.99427 127.305 9.59958 127.297 9.61615L126.922 10.5607L126.186 9.86057C123.606 7.406 117.986 12.3876 117.93 12.4394L117.506 12.8268L117.051 12.4767C115.191 11.0454 112.034 13.7713 112.003 13.8003L111.589 14.1628L111.144 13.8376C109.795 12.8516 108.423 12.4622 107.066 12.6776C104.521 13.0857 102.781 15.4823 102.762 15.505L102.326 16.1161L101.757 15.6293C95.9076 10.6063 86.8681 18.6784 86.777 18.7612L86.3653 19.1341L85.9142 18.8089C81.4762 15.6003 77.0402 14.9416 72.7304 16.8514C69.4944 18.2869 67.5558 20.6814 67.5371 20.7062L67.0923 21.2614L66.5523 20.7974C65.4495 19.8508 64.2681 19.4634 62.9439 19.6167C59.1928 20.0496 55.7499 24.6916 55.7168 24.7392L55.2223 25.4124L54.6575 24.7972C51.9739 21.8766 49.5511 20.6151 47.4593 21.0439C44.3889 21.6736 42.8971 25.8039 42.8826 25.8453L42.684 26.4108L42.0985 26.2907C32.2685 24.269 28.3188 29.6442 28.1553 29.8741L27.5429 30.7358L27.0029 29.8286C24.9318 26.3321 21.3461 25.429 16.3474 27.1461C11.779 28.7142 7.90782 32.0076 5.44154 36.4176C2.11248 42.3748 1.56005 47.8743 3.79874 52.7627C5.47465 56.4249 8.17886 58.3699 8.20576 58.3886L8.51818 58.6102L8.49542 58.9934C8.47887 59.2668 8.18921 65.6839 15.6749 66.5332C17.4088 66.7299 18.9047 66.3053 20.1233 65.2738C23.4172 62.4816 23.7876 56.1701 23.7917 56.108L23.8455 55.0909L27.3256 56.717L27.4311 56.9365C28.7264 59.6065 30.3319 61.0606 32.2044 61.2595C36.2369 61.6862 40.406 56.4 40.4474 56.3462L40.9253 55.7331L41.4736 56.282C42.3426 57.1519 43.2613 57.5745 44.2213 57.5642C45.8827 57.531 47.1676 56.1598 47.1821 56.1453L47.629 55.6626L50.507 58.0986L50.3684 58.5356C48.3118 65.0086 50.1553 68.8987 50.1739 68.938L50.2628 69.1203L50.2401 69.3254C49.7249 73.5758 50.4263 75.2308 50.5711 75.5208L50.5691 75.5188Z" fill="#43E8F3"/>
<path d="M18.7516 38.5034C18.733 38.3004 18.7371 38.0954 18.7516 37.8924C18.7868 37.3518 18.6999 35.9412 16.7943 36.2746C14.448 36.6848 9.52166 43.7896 10.5189 47.255C11.5162 50.7204 15.0356 50.0741 16.9702 48.3714C18.9047 46.6688 20.0778 43.0273 22.0144 43.9677C23.951 44.9081 22.7179 48.127 21.7206 49.3636C21.0172 50.2377 18.8985 52.307 17.7109 53.4504C17.1998 53.9413 16.8481 54.5752 16.7074 55.2711C16.5812 55.9029 16.3991 56.5927 16.2067 56.5927C15.8549 56.5927 16.3246 60.8783 15.9729 61.0544C15.6211 61.2305 15.3273 56.4166 15.3273 56.4166C15.3273 56.4166 14.7418 55.5363 14.0363 56.7688C13.3307 58.0012 12.1597 57.6491 12.1597 56.9448C12.1597 56.5803 12.0976 56.0624 12.0376 55.644C11.9776 55.2256 11.6983 54.9024 11.3114 54.7699C9.78856 54.252 5.965 52.4665 5.94431 47.6092C5.91949 41.5608 9.92098 33.0475 18.6709 31.3448C26.8229 29.7602 23.9593 39.1538 21.7786 40.0942C20.6365 40.5872 18.973 40.8316 18.7516 38.5055V38.5034Z" fill="#FCFFFF"/>
<path d="M37.6128 29.9342C32.3182 29.5738 28.9167 32.716 26.9449 35.5683C24.9835 38.404 24.16 41.8984 24.818 45.283C25.8256 50.4822 29.4133 51.7291 29.4609 52.1869C29.7981 55.4804 31.1616 53.8316 31.4554 53.0092C31.534 52.7897 31.7161 52.626 31.9416 52.5017C32.6616 52.1061 33.5513 52.5846 33.6403 53.4028C33.781 54.6933 34.0313 56.5803 34.3293 57.1789C34.7989 58.1172 35.8541 57.7071 35.6783 54.6539C35.5024 51.6007 37.6728 47.315 38.5522 46.1116C39.4315 44.9081 47.1158 30.5805 37.6128 29.9342ZM31.7492 46.4927C28.1718 46.0805 30.9278 39.0938 30.9278 39.0938C30.9278 39.0938 33.0382 33.8677 36.8514 35.2783C40.6646 36.6869 35.3265 46.9028 31.7492 46.4927Z" fill="#FCFFFF"/>
<path d="M95.8869 34.7853C96.6276 33.4928 104.451 19.2563 94.9497 18.61C89.653 18.2496 86.2515 21.3919 84.2797 24.2441C82.3183 27.0778 81.4948 30.5722 82.1527 33.9568C83.1604 39.158 86.7501 40.405 86.7956 40.8627C86.8556 41.451 86.9549 44.1251 87.2487 43.3028C87.2487 43.3028 87.3563 42.7746 87.4432 42.205C87.5405 41.5691 88.0308 41.0636 88.6619 40.9518C90.224 40.6742 93.1848 39.4977 95.8869 34.7853ZM89.084 35.1665C85.5066 34.7563 88.2626 27.7696 88.2626 27.7696C88.2626 27.7696 90.375 22.5436 94.1862 23.9521C97.9994 25.3627 92.6613 35.5787 89.084 35.1665Z" fill="#FCFFFF"/>
<path d="M45.5806 50.6541C45.4668 49.9022 44.7344 49.4009 43.9978 49.5791C42.984 49.8255 41.7881 49.9415 41.7198 49.1358C41.6019 47.7272 42.893 24.7682 48.8745 25.0043C48.8745 25.0043 51.6305 24.3581 54.0947 31.4629C54.0947 31.4629 62.1887 23.3597 63.7715 23.4777C63.7715 23.4777 64.357 39.332 63.4777 42.9134C62.5984 46.4948 59.7824 49.0778 58.6693 48.7256L59.079 34.2219C59.079 34.2219 54.1029 42.3831 52.8367 41.6209C51.5705 40.8586 48.9324 36.4549 48.6386 36.1607C48.3448 35.8666 46.9958 37.2233 46.9958 40.7737C46.9958 44.324 47.1655 53.4877 46.402 53.8399C45.98 54.0346 45.7255 51.6318 45.5765 50.6562L45.5806 50.6541Z" fill="#FCFFFF"/>
<path d="M81.9251 24.9443C81.8072 22.7714 79.2851 17.1932 70.5455 21.0687C61.808 24.9443 62.5115 30.3443 62.2756 31.1625C62.0418 31.9828 66.7923 27.9374 66.7923 27.9374C66.7923 27.9374 64.6819 39.564 64.7398 41.6188C64.7729 42.7891 66.3661 43.7875 67.7337 44.4317C68.8861 44.9744 69.7075 46.0329 69.9538 47.284C70.1586 48.3321 70.4834 49.3408 70.9593 49.1337C71.8966 48.7236 71.429 34.6901 71.429 34.6901C80.6941 34.2199 82.0431 27.1151 81.9272 24.9443H81.9251ZM77.2905 28.5837C75.8836 31.1667 72.0993 31.4608 72.0993 31.4608C72.0993 31.4608 72.0124 25.0603 74.4766 24.5901C76.9388 24.1219 78.6975 26.0007 77.2905 28.5837Z" fill="#FCFFFF"/>
<path d="M103.095 17.1932C103.095 17.1932 104.211 15.9607 105.969 16.8991C107.728 17.8374 108.08 20.2464 107.436 21.1267C106.793 22.0071 102.34 31.8129 105.417 32.8113C108.494 33.8097 110.428 27.8214 110.838 18.0155C110.838 18.0155 110.956 15.7847 113.066 15.9028C115.176 16.0208 115.94 18.7219 116.058 21.657C116.176 24.5921 115.824 37.9214 107.202 38.8017C98.5808 39.6821 99.696 30.4645 99.696 29.1719C99.696 27.8794 100.811 19.014 103.097 17.1932H103.095Z" fill="#FCFFFF"/>
<path d="M121.94 26.3238C122.027 27.8545 122.184 35.5725 116.643 36.5709C116.643 36.5709 117.053 24.037 118.05 19.7348C119.048 15.4326 121.57 12.8496 122.507 12.9676C123.444 13.0857 127.667 23.4778 128.137 23.0676C128.607 22.6575 128.782 11.265 128.782 11.265C128.782 11.265 132.302 10.3846 132.829 14.3182C133.357 18.2517 132.829 30.8767 132.829 30.8767C132.829 30.8767 132.082 33.7683 130.094 34.3607C129.521 34.5306 129.115 35.0298 129.027 35.6222C128.956 36.0841 128.807 36.5191 128.491 36.5729C128.145 36.6309 127.969 35.9205 127.878 35.1851C127.756 34.1702 127.4 33.2007 126.858 32.3349C126.13 31.1708 125.062 29.1637 123.974 26.0628C123.974 26.0628 123.564 24.7123 122.801 24.9464C122.497 25.0396 122.294 25.2384 122.161 25.4414C121.992 25.7024 121.921 26.0152 121.94 26.3259V26.3238Z" fill="#FCFFFF"/>
<path d="M150.193 8.09992C142.384 6.63961 137.114 9.7363 134.474 13.4358C131.834 17.1332 135.823 21.5369 136.527 18.7778C137.23 16.0188 140.046 15.1964 140.046 15.1964C138.639 17.4874 138.463 25.2695 138.463 25.2695C138.463 25.2695 138.285 27.8214 134.065 25.7645C131.6 24.5652 130.994 25.7645 130.916 26.9721C130.843 28.0803 131.226 29.1699 131.913 30.0419C132.867 31.2557 134.009 31.8979 134.851 32.2334C135.583 32.5234 136.076 33.2132 136.119 34.0003C136.196 35.3591 136.351 37.2648 136.645 37.7433C137.114 38.5076 138.118 34.1287 138.755 33.1635C139.949 31.3572 142.287 31.8502 143.748 32.4012C144.464 32.6705 145.001 33.2732 145.186 34.0169C145.399 34.8765 145.879 35.5497 146.907 32.6953C146.907 32.6953 148.022 30.3423 152.245 27.3802C156.468 24.4161 157.875 20.6586 157.581 16.2549C157.349 12.7957 153.698 8.75655 150.193 8.102V8.09992ZM152.949 16.8411C152.421 19.4241 151.542 26.1767 143.39 26.0007C143.39 26.0007 143.857 14.3741 146.555 13.6118C149.253 12.8475 153.476 14.256 152.949 16.8411Z" fill="#FCFFFF"/>
<path d="M138.043 25.2053C138.043 25.2053 137.865 27.7572 133.645 25.7003C131.18 24.501 130.574 25.7003 130.496 26.9079C130.423 28.0161 130.806 29.1057 131.493 29.9777C132.142 30.8042 132.941 31.409 133.678 31.8378" stroke="#FE760A" stroke-width="0.414508" stroke-miterlimit="10"/>
<path d="M69.4613 57.6243C72.3352 56.8371 72.3931 54.7119 72.3931 54.7119C72.3931 54.7119 74.3877 49.0177 65.9419 47.373C59.3831 46.095 54.523 49.896 52.6795 51.6587C52.1601 52.1558 51.8663 52.8415 51.8663 53.5602V54.861C51.8663 55.5156 52.6339 55.8553 53.1284 55.4265C54.3471 54.3681 56.0644 53.7425 57.2127 53.4173C57.821 53.2454 58.421 53.7156 58.4065 54.3494L58.1686 64.3023C58.1562 64.843 57.7072 65.2717 57.1651 65.2593L55.8202 65.2262C54.4568 65.193 53.3705 66.3551 53.4926 67.7139C53.7471 70.5185 54.1816 74.7503 54.5664 75.6741C55.152 77.0827 55.812 75.0009 56.0313 74.1475C56.292 73.1346 56.3251 70.7422 58.4955 70.7422C60.6659 70.7422 61.0301 73.7209 61.7935 74.4251C62.2384 74.8373 62.6273 72.6023 62.7887 71.6371C62.9211 70.8375 63.4715 70.1726 64.2288 69.8888C69.6806 67.8506 72.5732 64.6628 72.6 61.9348C72.629 58.9976 69.4634 57.6243 69.4634 57.6243H69.4613ZM63.9639 52.5038C67.4958 50.6893 68.9317 52.276 68.522 54.5068C68.1123 56.7377 66.2916 57.384 65.1205 57.6243C64.6446 57.7216 64.2329 57.7506 63.9019 57.7465C63.3329 57.7402 62.8549 57.326 62.7556 56.7667C62.5363 55.5322 62.3935 53.3096 63.966 52.5018L63.9639 52.5038ZM64.7646 64.6938C63.9722 64.8595 63.3929 64.8264 62.9915 64.7373C62.5301 64.6358 62.1928 64.2443 62.1453 63.7741C62.0728 63.072 62.0459 61.9824 62.5115 61.6344C63.2149 61.1062 65.706 59.1446 67.8765 60.5552C70.0469 61.9638 68.1496 63.9896 64.7646 64.6938Z" fill="#FCFFFF"/>
<path d="M90.3399 57.6242C90.3399 56.2986 90.164 47.373 90.164 47.373C90.164 47.373 90.5737 43.9076 86.7025 44.2618C82.8334 44.614 77.2016 49.1938 75.267 58.6454C75.267 58.6454 73.7215 63.4966 75.267 66.0381C75.4925 66.411 75.5898 66.848 75.5794 67.283C75.5567 68.2421 75.6229 69.7604 76.2643 69.7997C76.8809 69.8391 77.0153 68.5321 77.036 67.6331C77.0464 67.165 77.2802 66.7279 77.6692 66.4669C77.9133 66.3033 78.1678 66.0816 78.3188 65.8082C78.5071 65.4602 78.6975 64.2795 78.832 63.2625C78.952 62.347 79.6906 61.6344 80.6093 61.5619C81.7038 61.4749 83.09 61.2802 83.8431 60.8452C84.1121 60.6878 84.4535 60.8349 84.53 61.1373C84.9708 62.8938 86.4439 66.6595 90.8116 65.338C90.8116 65.338 91.8668 64.6337 91.8089 64.1055C91.7489 63.5753 90.3419 58.9499 90.3419 57.6222L90.3399 57.6242ZM84.3583 56.7667C84.0128 57.154 82.0824 56.9718 81.0851 56.8475C80.7293 56.804 80.4499 56.5181 80.421 56.1598C80.1189 52.16 82.6307 50.2419 83.9445 49.519C84.2921 49.3284 84.7163 49.5811 84.7183 49.9788C84.7328 51.8555 84.7266 56.3503 84.3583 56.7667Z" fill="#FCFFFF"/>
<path d="M97.2608 53.4214C97.2608 53.4214 92.98 49.0757 91.4551 47.4331C89.9302 45.7905 94.211 41.5608 96.0297 41.973C97.8484 42.3852 99.9009 48.1685 101.19 47.6838C102.479 47.1991 103.654 41.1507 106.996 41.0326C110.337 40.9145 110.279 41.9129 110.279 43.7917C110.279 45.6704 110.54 50.8384 109.94 50.6624C109.574 50.5547 109.365 48.6759 109.259 47.2281C109.218 46.675 108.506 46.4803 108.191 46.9381C105.872 50.3165 100.164 59.1198 99.605 64.7352C98.9015 71.8007 98.138 71.5666 97.8463 69.8039C97.5525 68.0412 98.4318 67.0428 97.0828 65.4002C95.7338 63.7555 93.0358 62.3097 94.2669 59.9214C95.498 57.5331 97.2587 53.4214 97.2587 53.4214H97.2608Z" fill="#FCFFFF"/>
<path d="M11.9259 39.622C10.941 41.6623 9.70581 43.7916 9.63753 46.1116C9.08717 43.8931 10.4858 41.2501 11.9259 39.622Z" fill="#E76E13"/>
<path d="M16.3246 54.5358C16.3225 53.4049 17.3198 52.2884 18.4743 52.305C17.5474 52.858 16.8874 53.6244 16.3246 54.5358Z" fill="#E76E13"/>
<path d="M17.3984 35.5911C18.615 35.415 19.4695 36.4362 19.3619 37.6086C19.3392 37.7598 19.3226 37.911 19.2937 38.0581C19.275 37.9069 19.2709 37.7578 19.2606 37.6107C19.1778 36.5004 18.5343 35.7133 17.3984 35.5911Z" fill="#E76E13"/>
<path d="M41.3867 36.9996C41.0764 39.9493 39.9839 43.4954 37.828 45.6103C39.5846 43.0025 40.4577 39.972 41.3867 36.9996Z" fill="#E76E13"/>
<path d="M31.652 36.2167C30.8223 37.0701 30.3754 38.199 30.0526 39.3237C30.005 39.4873 29.9678 39.6531 29.916 39.8167C29.9223 39.6448 29.9388 39.4749 29.9533 39.303C30.1209 38.1306 30.6278 36.8816 31.652 36.2146V36.2167Z" fill="#E76E13"/>
<path d="M62.9212 42.4701C62.7784 44.1376 62.048 45.9272 60.6638 46.9318C61.6115 45.5337 62.2156 43.9946 62.9212 42.4701Z" fill="#E76E13"/>
<path d="M57.9658 34.4477C57.4465 35.6056 56.8051 36.7096 56.0272 37.7122C55.7561 38.0291 55.4871 38.3999 55.0919 38.5656C55.4416 38.3315 55.6527 37.9504 55.8968 37.6169C56.6044 36.5709 57.2437 35.4896 57.9638 34.4477H57.9658Z" fill="#E76E13"/>
<path d="M46.4704 38.5656C46.4952 39.5909 46.4704 40.6142 46.4538 41.6374C46.4497 42.5385 46.3669 43.8144 46.4704 44.701C46.2075 43.7047 46.2489 42.6565 46.2469 41.6333C46.2717 40.608 46.3338 39.5826 46.4704 38.5656Z" fill="#E76E13"/>
<path d="M78.952 30.189C78.4782 31.9414 76.6823 33.1179 74.9443 33.3209C75.1367 33.207 75.3353 33.1179 75.5277 33.0143C76.8581 32.3287 78.0892 31.4359 78.952 30.189Z" fill="#E76E13"/>
<path d="M93.6917 36.8816C93.162 37.7018 92.3862 38.3377 91.6351 38.9488C90.8592 39.5288 90.0088 40.086 89.0488 40.2869C89.2764 40.1978 89.4957 40.1005 89.7068 39.9824C90.7702 39.4107 91.7116 38.6422 92.6344 37.8717C92.9924 37.5527 93.3876 37.2523 93.6917 36.8816Z" fill="#E76E13"/>
<path d="M89.4688 24.5197C90.344 23.049 92.6468 21.9387 94.0434 23.339C92.4068 22.5477 90.7723 23.5337 89.4688 24.5197Z" fill="#E76E13"/>
<path d="M109.998 28.2709C110.012 30.0067 109.329 31.9828 107.747 32.8776C107.515 32.9915 107.275 33.0806 107.025 33.1241C107.242 32.9936 107.447 32.861 107.635 32.7078C108.955 31.5871 109.483 29.8721 109.996 28.2709H109.998Z" fill="#E76E13"/>
<path d="M121.415 28.8571C121.41 29.5676 121.309 30.2739 121.139 30.9657C120.959 31.6451 120.73 32.3618 120.241 32.888C120.893 31.6596 121.077 30.1931 121.415 28.8571Z" fill="#E76E13"/>
<path d="M129.118 15.8965C129.356 17.5847 129.347 19.3329 128.923 20.99C128.776 19.2832 128.789 17.5785 129.118 15.8965Z" fill="#E76E13"/>
<path d="M155.295 13.0236C156.627 14.0945 156.896 16.1285 156.292 17.6614C156.276 17.4501 156.286 17.2471 156.28 17.0441C156.261 15.6355 156.017 14.2726 155.295 13.0236Z" fill="#E76E13"/>
<path d="M139.868 17.3693C139.788 18.3118 139.616 19.6727 139.506 20.6255C139.399 21.6384 139.223 22.6533 139.25 23.6725L139.281 23.8755C139.005 22.8087 139.206 21.6798 139.299 20.6006C139.434 19.5131 139.612 18.434 139.866 17.3693H139.868Z" fill="#E76E13"/>
<path d="M70.9076 59.7433C71.9752 60.4392 72.1242 61.9824 71.6587 63.0823C71.398 63.6208 71.3855 63.6312 71.4621 63.0326C71.578 61.8892 71.518 60.7748 70.9076 59.7433Z" fill="#E76E13"/>
<path d="M55.6196 53.0817C56.3375 52.7047 58.1251 52.247 58.4748 53.2826C57.9389 52.4976 56.4265 52.9947 55.6196 53.0817Z" fill="#E76E13"/>
<path d="M55.2285 73.2071C55.2244 71.8069 56.2299 70.2844 57.7299 70.272C57.4879 70.3466 57.2355 70.4315 57.0099 70.5454C56.0106 71.0716 55.4913 72.1466 55.2285 73.2071Z" fill="#E76E13"/>
<path d="M85.2564 50.3082C85.5399 51.5945 85.542 52.9367 85.2564 54.223C84.9707 52.9367 84.9728 51.5945 85.2564 50.3082Z" fill="#E76E13"/>
<path d="M89.715 57.7485C90.1061 59.4139 90.3875 61.2118 90.9275 62.8358C90.1123 61.2802 89.835 59.4843 89.715 57.7485Z" fill="#E76E13"/>
<path d="M107.074 46.5051C106.209 48.2886 105.212 50.0182 104.103 51.6587C104.968 49.8752 105.965 48.1457 107.074 46.5051Z" fill="#E76E13"/>
<path d="M64.2205 25.1783C64.2205 25.1783 62.1928 28.4387 62.0811 30.2739C62.0459 30.8415 62.6439 31.2412 63.1529 30.9906C63.486 30.827 63.9329 30.5453 64.5329 30.0709" stroke="#FE760A" stroke-width="0.414508" stroke-miterlimit="10"/>
<path d="M58.4727 47.1162V48.997C58.4727 48.997 60.3204 48.9742 61.7915 46.8511" stroke="#E76E13" stroke-width="0.414508" stroke-miterlimit="10"/>
</g>
<defs>
<clipPath id="clip0_670_47191">
<rect width="166" height="80" fill="white"/>
</clipPath>
</defs>
</svg>
